<svg width="16" height="14" viewBox="0 0 16 14" fill="none" xmlns="http://www.w3.org/2000/svg">
<g clip-path="url(#clip0)">
<path d="M16 1.53855C15.402 1.80518 14.7668 1.97879 14.1163 2.05335C14.8027 1.64493 15.3164 1.0001 15.5612 0.239824C14.9151 0.621238 14.2089 0.890259 13.4728 1.03544C13.0224 0.555771 12.4383 0.222526 11.7963 0.0789487C11.1542 -0.064629 10.4838 -0.011911 9.87206 0.230261C9.26032 0.472434 8.7355 0.89288 8.36568 1.43704C7.99587 1.9812 7.79815 2.62395 7.79817 3.28187C7.79743 3.53409 7.82689 3.78548 7.88592 4.03069C6.58068 3.96454 5.30383 3.62525 4.13793 3.03474C2.97202 2.44423 1.94299 1.61564 1.11737 0.60253C0.697351 1.32523 0.568811 2.18092 0.757958 2.99512C0.947105 3.80933 1.4397 4.52072 2.13528 4.98425C1.61448 4.96773 1.1051 4.82735 0.64936 4.57475V4.6157C0.649348 5.37345 0.911503 6.10788 1.39134 6.69435C1.87118 7.28082 2.53915 7.68321 3.2819 7.83325C2.99986 7.91097 2.70864 7.95033 2.41609 7.95025C2.2081 7.94846 2.00064 7.92888 1.79598 7.89175C2.00583 8.54385 2.41399 9.11418 2.96352 9.52318C3.51305 9.93218 4.17654 10.1595 4.86143 10.1733C3.6977 11.0845 2.26191 11.5788 0.783912 11.5773C0.521936 11.5765 0.260215 11.5608 0 11.5305C1.50075 12.4947 3.24731 13.0064 5.03108 13.0047C11.0684 13.0047 14.3678 8.0029 14.3678 3.66798C14.3678 3.52758 14.362 3.38133 14.3561 3.24092C15.001 2.77576 15.5577 2.19927 16 1.53855Z" fill="#6A737D"/>
</g>
<defs>
<clipPath id="clip0">
<rect width="16" height="13.0048" fill="white"/>
</clipPath>
</defs>
</svg>
